<svg width="24" height="24" viewBox="0 0 24 24" fill="none" xmlns="http://www.w3.org/2000/svg">
<path d="M5.4044 23.9996C5.0591 23.9987 4.71802 23.9236 4.40426 23.7794C4.0905 23.6352 3.81138 23.4253 3.58579 23.1639C3.3602 22.9024 3.19341 22.5956 3.09671 22.2641C3 21.9326 2.97564 21.5842 3.02528 21.2425C3.2519 19.6623 4.01665 16.7503 5.10165 15.6653C5.92838 14.8388 7.04958 14.3745 8.21858 14.3747C9.38759 14.3749 10.5087 14.8394 11.3352 15.6661C12.1616 16.4929 12.6259 17.6141 12.6257 18.7831C12.6256 19.9521 12.161 21.0731 11.3343 21.8996C10.2502 22.9838 7.33815 23.7485 5.75703 23.9751C5.64025 23.992 5.52239 24.0001 5.4044 23.9996ZM23.2124 3.78713C22.7017 3.30065 22.0234 3.0293 21.318 3.0293C20.6127 3.0293 19.9344 3.30065 19.4237 3.78713L10.2362 12.9746C11.115 13.2771 11.9131 13.7763 12.5697 14.4341C13.2263 15.0919 13.724 15.891 14.0249 16.7704L23.2124 7.57588C23.7135 7.07276 23.9948 6.39159 23.9948 5.68151C23.9948 4.97142 23.7135 4.29026 23.2124 3.78713Z" fill="#D3FA61"/>
<path d="M11 5H7V1C7 0.734784 6.89464 0.48043 6.70711 0.292893C6.51957 0.105357 6.26522 0 6 0C5.73478 0 5.48043 0.105357 5.29289 0.292893C5.10536 0.48043 5 0.734784 5 1V5H1C0.734784 5 0.48043 5.10536 0.292893 5.29289C0.105357 5.48043 0 5.73478 0 6C0 6.26522 0.105357 6.51957 0.292893 6.70711C0.48043 6.89464 0.734784 7 1 7H5V11C5 11.2652 5.10536 11.5196 5.29289 11.7071C5.48043 11.8946 5.73478 12 6 12C6.26522 12 6.51957 11.8946 6.70711 11.7071C6.89464 11.5196 7 11.2652 7 11V7H11C11.2652 7 11.5196 6.89464 11.7071 6.70711C11.8946 6.51957 12 6.26522 12 6C12 5.73478 11.8946 5.48043 11.7071 5.29289C11.5196 5.10536 11.2652 5 11 5Z" fill="#D3FA61"/>
</svg>
