<svg width="24" height="24" viewBox="0 0 24 24" fill="none" xmlns="http://www.w3.org/2000/svg">
<path d="M13.8699 21.3655L14.3552 23.8441C14.4045 24.0956 14.8112 24.0224 14.7619 23.7705L14.2765 21.2919C14.2272 21.0404 13.8205 21.1136 13.8699 21.3655Z" fill="#A1C82F"/>
<path d="M13.4997 21.6951C13.3905 21.7198 13.3132 21.8178 13.3346 21.9274L13.5171 22.859C13.5371 22.9613 13.6498 23.0423 13.7587 23.0178C13.868 22.9931 13.9452 22.8951 13.9238 22.7854L13.7414 21.8538C13.7212 21.7516 13.6085 21.6705 13.4997 21.6951Z" fill="#A1C82F"/>
<path d="M16.6118 20.1802L17.0353 22.3427C17.0845 22.5942 17.4912 22.521 17.4419 22.2691L17.0184 20.1066C16.9692 19.8551 16.5624 19.9283 16.6118 20.1802Z" fill="#A1C82F"/>
<path d="M11.1468 5.65712C9.58368 5.5232 7.95116 6.17967 6.90029 7.28657C5.84955 8.39346 5.36735 9.87161 5.549 11.2888L14.6552 8.08199C14.1412 6.74558 12.71 5.79091 11.1468 5.65712Z" fill="#A1C82F"/>
<path d="M15.5187 7.95264C12.2953 8.40186 9.15343 9.38677 6.27404 10.8503C5.79764 11.0925 5.32717 11.3954 5 11.8071C5.03062 12.1545 5.19751 12.4893 5.45999 12.7301C5.72247 12.9708 6.07819 13.1153 6.44066 13.1283L15.386 10.2559C15.8659 9.59653 15.9034 8.66732 15.5187 7.95264Z" fill="#D3FA61"/>
<path d="M11.1364 22.9118C9.7294 20.4908 7.13938 14.862 6.23926 12.2271C8.67121 10.7736 12.09 9.40871 14.913 8.94702C15.9387 12.7368 16.9516 16.5013 17.9772 20.2911C15.8359 21.4178 13.5017 22.3312 11.1364 22.9118Z" fill="#A1C82F"/>
<path d="M9.34424 1.67645C8.46854 1.66292 7.59587 1.97664 6.91919 2.50449C7.10898 3.35866 7.47614 4.16748 7.94013 4.923C8.49074 4.67041 9.09184 4.51183 9.69775 4.45919C9.60479 3.56431 9.57031 2.54586 9.34424 1.67645Z" fill="#A1C82F"/>
<path d="M9.19652 4.53442L8.35571 4.78118C8.46702 5.12738 8.61985 5.46112 8.81032 5.77378C9.00825 5.73798 9.24949 5.67446 9.44742 5.63866C9.33569 5.27721 9.2517 4.90781 9.19652 4.53442Z" fill="#D3FA61"/>
<path fill-rule="evenodd" clip-rule="evenodd" d="M15.452 8.15003C15.5931 8.12695 15.7292 8.2115 15.7652 8.34469C16.278 10.2397 16.7877 12.1283 17.2974 14.0169L17.2978 14.0186C17.8073 15.9066 18.3168 17.7945 18.8294 19.6887C18.8612 19.8064 18.8058 19.9298 18.6949 19.9881C16.5353 21.1246 14.1797 22.0466 11.7899 22.6332C11.6687 22.6629 11.5418 22.6105 11.4808 22.5056C10.0655 20.0704 7.46826 14.4259 6.56238 11.7743C6.52269 11.6581 6.57079 11.5309 6.67882 11.4663C9.13523 9.99824 12.5875 8.61851 15.452 8.15003ZM7.15554 11.8073C8.08374 14.4344 10.4762 19.6347 11.8595 22.0678C14.0609 21.5089 16.233 20.6608 18.2411 19.6214C17.7466 17.7938 17.255 15.9719 16.7633 14.1501L16.7628 14.1483C16.2746 12.3392 15.7865 10.5302 15.2955 8.7157C12.6347 9.19504 9.47646 10.4524 7.15554 11.8073Z" fill="#61A3FA"/>
<path fill-rule="evenodd" clip-rule="evenodd" d="M16.0643 7.15461C16.1806 7.1384 16.2949 7.19483 16.3489 7.29518C16.7775 8.09154 16.7397 9.12685 16.1972 9.87235C16.1099 9.99236 15.9379 10.0216 15.8131 9.93763C15.6882 9.85368 15.6578 9.68833 15.7452 9.56832C16.1259 9.04507 16.1902 8.31367 15.9394 7.70867C12.8188 8.16617 9.77888 9.13057 6.98818 10.5492L6.98815 10.5492C6.5606 10.7665 6.16175 11.0231 5.87368 11.3498C5.91869 11.5965 6.04729 11.83 6.23556 12.0026C6.4493 12.1986 6.74099 12.317 7.03623 12.3277C7.18847 12.3332 7.30724 12.4563 7.30151 12.6027C7.29577 12.749 7.1677 12.8632 7.01546 12.8577C6.58575 12.8421 6.166 12.6718 5.85478 12.3864C5.54357 12.1011 5.34662 11.706 5.31031 11.2939C5.30453 11.2283 5.32438 11.1629 5.366 11.1105C5.72888 10.654 6.24049 10.3292 6.7303 10.0803C9.63759 8.60243 12.8097 7.60819 16.0643 7.15461Z" fill="#61A3FA"/>
<path fill-rule="evenodd" clip-rule="evenodd" d="M11.7075 5.38568C10.2355 5.25957 8.68575 5.88007 7.6892 6.92974C6.69204 7.98018 6.23639 9.38144 6.40794 10.7206C6.42656 10.866 6.31907 10.9984 6.16786 11.0163C6.01665 11.0342 5.87898 10.9308 5.86036 10.7855C5.66888 9.29061 6.17734 7.73557 7.28166 6.57223L7.28168 6.57221C8.38688 5.4081 10.1022 4.71567 11.7565 4.8574C13.4104 4.9991 14.9433 6.00889 15.4991 7.45448C15.5519 7.59186 15.4788 7.74438 15.3359 7.79515C15.193 7.84593 15.0344 7.77572 14.9816 7.63834C14.5098 6.41112 13.1798 5.51182 11.7075 5.38568Z" fill="#61A3FA"/>
<path fill-rule="evenodd" clip-rule="evenodd" d="M7.33034 1.76296C8.05349 1.19897 8.98829 0.861097 9.93376 0.875699C10.0587 0.877628 10.1666 0.960006 10.1969 1.07651C10.3722 1.75006 10.4367 2.51644 10.4964 3.22462C10.5159 3.45688 10.535 3.68288 10.5572 3.89728C10.5645 3.96769 10.5422 4.03799 10.4953 4.09253C10.4485 4.14707 10.3808 4.18134 10.3075 4.1877C9.73428 4.23751 9.16488 4.38768 8.64391 4.62673C8.5149 4.68593 8.36021 4.64057 8.28754 4.52223C7.81248 3.7487 7.43184 2.9132 7.23436 2.02428C7.2127 1.92676 7.24978 1.82579 7.33034 1.76296ZM7.81214 2.07513C7.98422 2.76095 8.27452 3.41967 8.63989 4.04738C9.06908 3.87404 9.52275 3.75345 9.9829 3.69029C9.96884 3.5378 9.95589 3.38427 9.94291 3.23054C9.8904 2.60841 9.83761 1.98294 9.71082 1.40973C9.03288 1.44362 8.36326 1.68528 7.81214 2.07513Z" fill="#61A3FA"/>
<path fill-rule="evenodd" clip-rule="evenodd" d="M8.85951 3.99236C9.00507 3.94912 9.15954 4.02749 9.20452 4.16742C9.30959 4.49419 9.45385 4.80923 9.63362 5.1043C9.71061 5.23068 9.66646 5.39314 9.53499 5.46715C9.40353 5.54117 9.23454 5.49872 9.15754 5.37234C8.95635 5.0421 8.79497 4.68967 8.67741 4.32403C8.63243 4.18411 8.71395 4.03561 8.85951 3.99236Z" fill="#61A3FA"/>
<path fill-rule="evenodd" clip-rule="evenodd" d="M9.74296 3.73631C9.89379 3.71571 10.0334 3.81657 10.0549 3.96157C10.1081 4.32203 10.1891 4.67864 10.2971 5.02764C10.3405 5.16802 10.2573 5.31567 10.1113 5.35742C9.96525 5.39917 9.81166 5.31921 9.76823 5.17883C9.65248 4.80467 9.56572 4.42246 9.50864 4.03616C9.48721 3.89115 9.59212 3.75691 9.74296 3.73631Z" fill="#61A3FA"/>
<path fill-rule="evenodd" clip-rule="evenodd" d="M11.9233 6.40837C11.9357 6.2624 12.0689 6.15375 12.2207 6.16569C13.1076 6.23546 13.9155 6.84331 14.1989 7.65425C14.2474 7.79308 14.1696 7.94344 14.0252 7.99008C13.8808 8.03672 13.7244 7.96198 13.6759 7.82315C13.4627 7.21321 12.8428 6.74678 12.1757 6.6943C12.0239 6.68235 11.9109 6.55434 11.9233 6.40837Z" fill="#61A3FA"/>
<path fill-rule="evenodd" clip-rule="evenodd" d="M14.7534 19.6769C14.8066 19.8142 14.7341 19.9669 14.5914 20.0181C13.4746 20.4187 12.3925 20.9091 11.3605 21.4824C11.2286 21.5557 11.0598 21.5123 10.9836 21.3855C10.9074 21.2587 10.9525 21.0965 11.0844 21.0232C12.1431 20.4351 13.253 19.9321 14.3985 19.5212C14.5412 19.47 14.7001 19.5397 14.7534 19.6769Z" fill="#61A3FA"/>
<path d="M13.5795 22.6933C13.6057 22.6933 13.6268 22.6729 13.6268 22.6478C13.6268 22.6227 13.6057 22.6023 13.5795 22.6023C13.5534 22.6023 13.5322 22.6227 13.5322 22.6478C13.5322 22.6729 13.5534 22.6933 13.5795 22.6933Z" fill="#61A3FA"/>
<path d="M13.4424 23.2011C13.4424 23.2598 13.3929 23.3074 13.3318 23.3074C13.2707 23.3074 13.2212 23.2598 13.2212 23.2011C13.2212 23.1423 13.2707 23.0947 13.3318 23.0947C13.3929 23.0947 13.4424 23.1423 13.4424 23.2011Z" fill="#61A3FA"/>
<path d="M12.9626 23.4162C12.9626 23.4826 12.9066 23.5364 12.8375 23.5364C12.7684 23.5364 12.7124 23.4826 12.7124 23.4162C12.7124 23.3497 12.7684 23.2959 12.8375 23.2959C12.9066 23.2959 12.9626 23.3497 12.9626 23.4162Z" fill="#61A3FA"/>
<path d="M12.1278 23.4833C12.1962 23.4833 12.2516 23.4299 12.2516 23.3642C12.2516 23.2984 12.1962 23.2451 12.1278 23.2451C12.0594 23.2451 12.0039 23.2984 12.0039 23.3642C12.0039 23.4299 12.0594 23.4833 12.1278 23.4833Z" fill="#61A3FA"/>
<path d="M11.6843 23.5917C11.7071 23.5917 11.7255 23.574 11.7255 23.5521C11.7255 23.5302 11.7071 23.5125 11.6843 23.5125C11.6615 23.5125 11.6431 23.5302 11.6431 23.5521C11.6431 23.574 11.6615 23.5917 11.6843 23.5917Z" fill="#61A3FA"/>
<path d="M11.1346 23.0273C11.1346 23.0557 11.1106 23.0787 11.0811 23.0787C11.0516 23.0787 11.0276 23.0557 11.0276 23.0273C11.0276 22.9989 11.0516 22.9758 11.0811 22.9758C11.1106 22.9758 11.1346 22.9989 11.1346 23.0273Z" fill="#61A3FA"/>
<path d="M10.9735 22.9138C10.9735 22.9567 10.9372 22.9916 10.8925 22.9916C10.8478 22.9916 10.8115 22.9567 10.8115 22.9138C10.8115 22.8708 10.8478 22.8359 10.8925 22.8359C10.9372 22.8361 10.9735 22.8708 10.9735 22.9138Z" fill="#61A3FA"/>
<path d="M10.3798 22.7809C10.3798 22.7969 10.3663 22.8101 10.3494 22.8101C10.3327 22.8101 10.3191 22.7971 10.3191 22.7809C10.3191 22.7648 10.3326 22.7517 10.3494 22.7517C10.3663 22.7518 10.3798 22.7648 10.3798 22.7809Z" fill="#61A3FA"/>
<path d="M10.5483 22.2732C10.5483 22.3183 10.5104 22.3547 10.4635 22.3547C10.4166 22.3547 10.3787 22.3183 10.3787 22.2732C10.3787 22.2281 10.4166 22.1917 10.4635 22.1917C10.5104 22.1917 10.5483 22.2281 10.5483 22.2732Z" fill="#61A3FA"/>
<path d="M11.0158 21.8824C11.0158 21.9182 10.9856 21.9473 10.9482 21.9473C10.9108 21.9473 10.8806 21.9183 10.8806 21.8824C10.8806 21.8464 10.9108 21.8174 10.9482 21.8174C10.9856 21.8174 11.0158 21.8466 11.0158 21.8824Z" fill="#61A3FA"/>
<path d="M11.154 21.4655C11.154 21.4857 11.137 21.5019 11.1162 21.5019C11.0952 21.5019 11.0784 21.4856 11.0784 21.4655C11.0784 21.4455 11.0953 21.4292 11.1162 21.4292C11.137 21.4292 11.154 21.4455 11.154 21.4655Z" fill="#61A3FA"/>
<path d="M11.7558 21.1369C11.7558 21.1813 11.7183 21.2174 11.6721 21.2174C11.6259 21.2174 11.5884 21.1813 11.5884 21.1369C11.5884 21.0925 11.6259 21.0564 11.6721 21.0564C11.7183 21.0565 11.7558 21.0925 11.7558 21.1369Z" fill="#61A3FA"/>
<path d="M11.2696 20.1004C11.2696 20.1672 11.2134 20.2213 11.1439 20.2213C11.0743 20.2213 11.0181 20.1672 11.0181 20.1004C11.0181 20.0336 11.0743 19.9795 11.1439 19.9795C11.2134 19.9795 11.2696 20.0336 11.2696 20.1004Z" fill="#61A3FA"/>
<path d="M12.221 20.5023C12.2728 20.5023 12.3148 20.462 12.3148 20.4122C12.3148 20.3624 12.2728 20.322 12.221 20.322C12.1692 20.322 12.1272 20.3624 12.1272 20.4122C12.1272 20.462 12.1692 20.5023 12.221 20.5023Z" fill="#61A3FA"/>
<path d="M12.3743 20.3291C12.3743 20.3517 12.3553 20.37 12.3317 20.37C12.3081 20.37 12.2891 20.3517 12.2891 20.3291C12.2891 20.3064 12.3081 20.2881 12.3317 20.2881C12.3553 20.2881 12.3743 20.3065 12.3743 20.3291Z" fill="#61A3FA"/>
<path d="M12.4971 20.9174C12.4971 20.9452 12.4737 20.9677 12.4449 20.9677C12.416 20.9677 12.3926 20.9452 12.3926 20.9174C12.3926 20.8897 12.416 20.8672 12.4449 20.8672C12.4737 20.8672 12.4971 20.8897 12.4971 20.9174Z" fill="#61A3FA"/>
<path d="M11.9639 21.4662C11.9639 21.518 11.9201 21.5601 11.8662 21.5601C11.8123 21.5601 11.7686 21.518 11.7686 21.4662C11.7686 21.4143 11.8123 21.3723 11.8662 21.3723C11.9201 21.3723 11.9639 21.4143 11.9639 21.4662Z" fill="#61A3FA"/>
<path d="M11.5463 21.6942C11.5463 21.7442 11.5042 21.7846 11.4522 21.7846C11.4002 21.7846 11.3582 21.7442 11.3582 21.6942C11.3582 21.6442 11.4002 21.6038 11.4522 21.6038C11.5042 21.6038 11.5463 21.6442 11.5463 21.6942Z" fill="#61A3FA"/>
<path d="M11.0043 21.8781C11.0043 21.9128 10.975 21.9409 10.939 21.9409C10.903 21.9409 10.8738 21.9128 10.8738 21.8781C10.8738 21.8435 10.903 21.8154 10.939 21.8154C10.975 21.8156 11.0043 21.8435 11.0043 21.8781Z" fill="#61A3FA"/>
<path d="M10.2145 21.839C10.2145 21.8676 10.1904 21.8908 10.1606 21.8908C10.1308 21.8908 10.1067 21.8676 10.1067 21.839C10.1067 21.8103 10.1308 21.7871 10.1606 21.7871C10.1904 21.7871 10.2145 21.8103 10.2145 21.839Z" fill="#61A3FA"/>
<path d="M10.0422 21.0185C10.0422 21.0728 9.99651 21.1168 9.93996 21.1168C9.88355 21.1168 9.83789 21.0729 9.83789 21.0185C9.83789 20.9643 9.88368 20.9204 9.93996 20.9204C9.99637 20.9204 10.0422 20.9643 10.0422 21.0185Z" fill="#61A3FA"/>
<path d="M10.2361 20.5134C10.2792 20.5134 10.3141 20.4798 10.3141 20.4384C10.3141 20.3971 10.2792 20.3635 10.2361 20.3635C10.1931 20.3635 10.1582 20.3971 10.1582 20.4384C10.1582 20.4798 10.1931 20.5134 10.2361 20.5134Z" fill="#61A3FA"/>
<path d="M10.6836 19.8202C10.6836 19.8683 10.643 19.9074 10.593 19.9074C10.5429 19.9074 10.5022 19.8684 10.5022 19.8202C10.5022 19.7719 10.5427 19.7329 10.593 19.7329C10.643 19.733 10.6836 19.772 10.6836 19.8202Z" fill="#61A3FA"/>
<path d="M9.97604 19.1992C9.97604 19.2511 9.93231 19.293 9.87852 19.293C9.82459 19.293 9.78101 19.2509 9.78101 19.1992C9.78101 19.1474 9.82473 19.1055 9.87852 19.1055C9.93245 19.1055 9.97604 19.1474 9.97604 19.1992Z" fill="#61A3FA"/>
<path d="M10.8426 19.0864C10.8426 19.1474 10.7911 19.1967 10.7278 19.1967C10.6645 19.1967 10.613 19.1473 10.613 19.0864C10.613 19.0255 10.6645 18.9761 10.7278 18.9761C10.7911 18.9761 10.8426 19.0255 10.8426 19.0864Z" fill="#61A3FA"/>
<path d="M11.0463 18.5565C11.0463 18.6211 10.9918 18.6736 10.9245 18.6736C10.8572 18.6736 10.8027 18.6212 10.8027 18.5565C10.8027 18.492 10.8572 18.4395 10.9245 18.4395C10.9917 18.4395 11.0463 18.492 11.0463 18.5565Z" fill="#61A3FA"/>
<path d="M10.5159 18.9372C10.5159 18.9553 10.5006 18.9701 10.4817 18.9701C10.4628 18.9701 10.4475 18.9553 10.4475 18.9372C10.4475 18.919 10.4628 18.9043 10.4817 18.9043C10.5006 18.9043 10.5159 18.919 10.5159 18.9372Z" fill="#61A3FA"/>
<path d="M10.4748 19.2435C10.4748 19.2712 10.4515 19.2936 10.4226 19.2936C10.3938 19.2936 10.3704 19.2712 10.3704 19.2435C10.3704 19.2158 10.3938 19.1934 10.4226 19.1934C10.4515 19.1934 10.4748 19.2158 10.4748 19.2435Z" fill="#61A3FA"/>
<path d="M11.0382 19.9316C11.0382 19.9899 10.989 20.0373 10.9283 20.0373C10.8676 20.0373 10.8184 19.9899 10.8184 19.9316C10.8184 19.8733 10.8676 19.8259 10.9283 19.8259C10.989 19.8259 11.0382 19.8733 11.0382 19.9316Z" fill="#61A3FA"/>
<path d="M10.5572 20.3047C10.5572 20.3234 10.5415 20.3386 10.5219 20.3386C10.5024 20.3386 10.4866 20.3234 10.4866 20.3047C10.4866 20.286 10.5024 20.2708 10.5219 20.2708C10.5413 20.2709 10.5572 20.286 10.5572 20.3047Z" fill="#61A3FA"/>
<path d="M10.3673 20.8553C10.3673 20.9198 10.313 20.9722 10.2458 20.9722C10.1786 20.9722 10.1243 20.9199 10.1243 20.8553C10.1243 20.7909 10.1786 20.7385 10.2458 20.7385C10.313 20.7385 10.3673 20.7908 10.3673 20.8553Z" fill="#61A3FA"/>
<path d="M9.58632 21.1649C9.61336 21.1649 9.63528 21.1439 9.63528 21.1179C9.63528 21.0919 9.61336 21.0708 9.58632 21.0708C9.55928 21.0708 9.53735 21.0919 9.53735 21.1179C9.53735 21.1439 9.55928 21.1649 9.58632 21.1649Z" fill="#61A3FA"/>
<path d="M9.1296 20.5303C9.1296 20.5612 9.10353 20.5863 9.07139 20.5863C9.03925 20.5863 9.01318 20.5612 9.01318 20.5303C9.01318 20.4994 9.03925 20.4744 9.07139 20.4744C9.10353 20.4744 9.1296 20.4994 9.1296 20.5303Z" fill="#61A3FA"/>
<path d="M8.8441 19.863C8.87747 19.863 8.90452 19.837 8.90452 19.8049C8.90452 19.7728 8.87747 19.7468 8.8441 19.7468C8.81074 19.7468 8.78369 19.7728 8.78369 19.8049C8.78369 19.837 8.81074 19.863 8.8441 19.863Z" fill="#61A3FA"/>
<path d="M9.80896 19.4742C9.84354 19.4742 9.87158 19.4472 9.87158 19.414C9.87158 19.3807 9.84354 19.3538 9.80896 19.3538C9.77437 19.3538 9.74634 19.3807 9.74634 19.414C9.74634 19.4472 9.77437 19.4742 9.80896 19.4742Z" fill="#61A3FA"/>
<path d="M9.68321 18.8106C9.68321 18.8688 9.6341 18.9162 9.57341 18.9162C9.51273 18.9162 9.46362 18.869 9.46362 18.8106C9.46362 18.7523 9.51273 18.7051 9.57341 18.7051C9.6341 18.7051 9.68321 18.7523 9.68321 18.8106Z" fill="#61A3FA"/>
<path d="M9.69761 18.3882C9.69761 18.4183 9.67223 18.4427 9.64092 18.4427C9.60961 18.4427 9.58423 18.4183 9.58423 18.3882C9.58423 18.3581 9.60961 18.3337 9.64092 18.3337C9.67223 18.3337 9.69761 18.3581 9.69761 18.3882Z" fill="#61A3FA"/>
<path d="M9.69749 17.8035C9.732 17.8035 9.75997 17.7766 9.75997 17.7434C9.75997 17.7102 9.732 17.6833 9.69749 17.6833C9.66298 17.6833 9.63501 17.7102 9.63501 17.7434C9.63501 17.7766 9.66298 17.8035 9.69749 17.8035Z" fill="#61A3FA"/>
<path d="M9.88348 17.0167C9.88348 17.0781 9.83176 17.1277 9.76803 17.1277C9.70431 17.1277 9.65259 17.078 9.65259 17.0167C9.65259 16.9555 9.70431 16.9058 9.76803 16.9058C9.83176 16.9058 9.88348 16.9555 9.88348 17.0167Z" fill="#61A3FA"/>
<path d="M9.77799 17.4394C9.8157 17.4394 9.84627 17.41 9.84627 17.3737C9.84627 17.3375 9.8157 17.3081 9.77799 17.3081C9.74028 17.3081 9.70972 17.3375 9.70972 17.3737C9.70972 17.41 9.74028 17.4394 9.77799 17.4394Z" fill="#61A3FA"/>
<path d="M9.63538 17.9296C9.68992 17.9296 9.73413 17.8871 9.73413 17.8347C9.73413 17.7823 9.68992 17.7397 9.63538 17.7397C9.58084 17.7397 9.53662 17.7823 9.53662 17.8347C9.53662 17.8871 9.58084 17.9296 9.63538 17.9296Z" fill="#61A3FA"/>
<path d="M9.54289 18.5768C9.54289 18.6165 9.50923 18.6489 9.46786 18.6489C9.42648 18.6489 9.39282 18.6165 9.39282 18.5768C9.39282 18.5369 9.42648 18.5046 9.46786 18.5046C9.50937 18.5046 9.54289 18.537 9.54289 18.5768Z" fill="#61A3FA"/>
<path d="M9.13409 18.0746C9.13409 18.095 9.11685 18.1116 9.09561 18.1116C9.07437 18.1116 9.05713 18.095 9.05713 18.0746C9.05713 18.0542 9.07437 18.0376 9.09561 18.0376C9.11685 18.0376 9.13409 18.0542 9.13409 18.0746Z" fill="#61A3FA"/>
<path d="M8.50924 18.1017C8.55829 18.1017 8.59806 18.0635 8.59806 18.0163C8.59806 17.9691 8.55829 17.9309 8.50924 17.9309C8.46018 17.9309 8.42041 17.9691 8.42041 18.0163C8.42041 18.0635 8.46018 18.1017 8.50924 18.1017Z" fill="#61A3FA"/>
<path d="M8.79442 17.4443C8.81544 17.4443 8.83248 17.4279 8.83248 17.4077C8.83248 17.3875 8.81544 17.3711 8.79442 17.3711C8.77339 17.3711 8.75635 17.3875 8.75635 17.4077C8.75635 17.4279 8.77339 17.4443 8.79442 17.4443Z" fill="#61A3FA"/>
<path d="M8.21819 16.9214C8.23488 16.9214 8.2484 16.9084 8.2484 16.8923C8.2484 16.8763 8.23488 16.8633 8.21819 16.8633C8.20151 16.8633 8.18799 16.8763 8.18799 16.8923C8.18799 16.9084 8.20151 16.9214 8.21819 16.9214Z" fill="#61A3FA"/>
<path d="M8.29069 16.4235C8.32314 16.4235 8.34945 16.3982 8.34945 16.367C8.34945 16.3358 8.32314 16.3105 8.29069 16.3105C8.25824 16.3105 8.23193 16.3358 8.23193 16.367C8.23193 16.3982 8.25824 16.4235 8.29069 16.4235Z" fill="#61A3FA"/>
<path d="M8.79342 15.8413C8.79342 15.8559 8.78114 15.8677 8.76597 15.8677C8.7508 15.8677 8.73853 15.8559 8.73853 15.8413C8.73853 15.8267 8.7508 15.8149 8.76597 15.8149C8.78114 15.8149 8.79342 15.8267 8.79342 15.8413Z" fill="#61A3FA"/>
<path d="M8.79589 15.2125C8.79589 15.2513 8.76307 15.2829 8.72265 15.2829C8.68224 15.2829 8.64941 15.2513 8.64941 15.2125C8.64941 15.1736 8.68224 15.1421 8.72265 15.1421C8.7632 15.1421 8.79589 15.1736 8.79589 15.2125Z" fill="#61A3FA"/>
<path d="M9.12802 15.0431C9.12802 15.0838 9.09367 15.1169 9.05119 15.1169C9.00871 15.1169 8.97437 15.0839 8.97437 15.0431C8.97437 15.0023 9.00871 14.9692 9.05119 14.9692C9.09367 14.9694 9.12802 15.0024 9.12802 15.0431Z" fill="#61A3FA"/>
<path d="M8.87135 15.6338C8.87135 15.6924 8.82183 15.74 8.76087 15.74C8.69991 15.74 8.65039 15.6924 8.65039 15.6338C8.65039 15.5752 8.69991 15.5276 8.76087 15.5276C8.82183 15.5275 8.87135 15.5751 8.87135 15.6338Z" fill="#61A3FA"/>
<path d="M9.03222 15.4206C9.03222 15.4854 8.9776 15.5379 8.91015 15.5379C8.84271 15.5379 8.78809 15.4854 8.78809 15.4206C8.78809 15.3557 8.84271 15.3032 8.91015 15.3032C8.97746 15.3032 9.03222 15.3557 9.03222 15.4206Z" fill="#61A3FA"/>
<path d="M8.14061 15.2387C8.14061 15.26 8.12254 15.2774 8.10033 15.2774C8.07813 15.2774 8.06006 15.26 8.06006 15.2387C8.06006 15.2173 8.07813 15.2 8.10033 15.2C8.12254 15.2 8.14061 15.2173 8.14061 15.2387Z" fill="#61A3FA"/>
<path d="M8.53242 14.371C8.53242 14.3941 8.51297 14.4126 8.48911 14.4126C8.46511 14.4126 8.4458 14.3939 8.4458 14.371C8.4458 14.348 8.46525 14.3293 8.48911 14.3293C8.51297 14.3293 8.53242 14.3479 8.53242 14.371Z" fill="#61A3FA"/>
<path d="M8.16479 14.0017C8.21872 14.0017 8.26245 13.9597 8.26245 13.9078C8.26245 13.856 8.21872 13.814 8.16479 13.814C8.11086 13.814 8.06714 13.856 8.06714 13.9078C8.06714 13.9597 8.11086 14.0017 8.16479 14.0017Z" fill="#61A3FA"/>
<path d="M7.94444 13.3374C7.94444 13.394 7.89671 13.4399 7.83782 13.4399C7.77892 13.4399 7.7312 13.394 7.7312 13.3374C7.7312 13.2807 7.77892 13.2349 7.83782 13.2349C7.89671 13.235 7.94444 13.2807 7.94444 13.3374Z" fill="#61A3FA"/>
<path d="M7.7487 12.6705C7.7487 12.6877 7.73408 12.7017 7.71614 12.7017C7.69821 12.7017 7.68359 12.6877 7.68359 12.6705C7.68359 12.6532 7.69821 12.6392 7.71614 12.6392C7.73421 12.6392 7.7487 12.6531 7.7487 12.6705Z" fill="#61A3FA"/>
<path d="M18.4814 17.7001C18.4814 17.7312 18.4554 17.7562 18.4231 17.7562C18.3908 17.7562 18.3647 17.731 18.3647 17.7001C18.3647 17.6691 18.3908 17.644 18.4231 17.644C18.4554 17.644 18.4814 17.6691 18.4814 17.7001Z" fill="#61A3FA"/>
<path d="M18.302 17.1693C18.302 17.2116 18.2663 17.2458 18.2224 17.2458C18.1785 17.2458 18.1428 17.2116 18.1428 17.1693C18.1428 17.127 18.1784 17.0928 18.2224 17.0928C18.2664 17.0928 18.302 17.1271 18.302 17.1693Z" fill="#61A3FA"/>
<path d="M17.8014 16.929C17.8014 16.9872 17.7523 17.0346 17.6916 17.0346C17.631 17.0346 17.5818 16.9874 17.5818 16.929C17.5818 16.8707 17.6309 16.8235 17.6916 16.8235C17.7523 16.8235 17.8014 16.8707 17.8014 16.929Z" fill="#61A3FA"/>
<path d="M17.983 16.4658C17.983 16.5004 17.9538 16.5285 17.9178 16.5285C17.8818 16.5285 17.8525 16.5004 17.8525 16.4658C17.8525 16.4312 17.8818 16.4031 17.9178 16.4031C17.9538 16.4031 17.983 16.4312 17.983 16.4658Z" fill="#61A3FA"/>
<path d="M17.9783 17.1335C18.0089 17.1335 18.0337 17.1096 18.0337 17.0802C18.0337 17.0507 18.0089 17.0269 17.9783 17.0269C17.9477 17.0269 17.9229 17.0507 17.9229 17.0802C17.9229 17.1096 17.9477 17.1335 17.9783 17.1335Z" fill="#61A3FA"/>
<path d="M18.1847 17.7252C18.1847 17.7752 18.1426 17.8156 18.0906 17.8156C18.0388 17.8156 17.9966 17.7752 17.9966 17.7252C17.9966 17.6753 18.0386 17.6348 18.0906 17.6348C18.1426 17.6349 18.1847 17.6753 18.1847 17.7252Z" fill="#61A3FA"/>
<path d="M17.9297 18.1024C17.9682 18.1024 17.9994 18.0724 17.9994 18.0354C17.9994 17.9983 17.9682 17.9683 17.9297 17.9683C17.8911 17.9683 17.8599 17.9983 17.8599 18.0354C17.8599 18.0724 17.8911 18.1024 17.9297 18.1024Z" fill="#61A3FA"/>
<path d="M18.1603 18.6694C18.2028 18.6694 18.2371 18.6364 18.2371 18.5956C18.2371 18.5548 18.2028 18.5217 18.1603 18.5217C18.1179 18.5217 18.0835 18.5548 18.0835 18.5956C18.0835 18.6364 18.1179 18.6694 18.1603 18.6694Z" fill="#61A3FA"/>
<path d="M17.7252 19.0795C17.7503 19.0795 17.7707 19.0599 17.7707 19.0357C17.7707 19.0115 17.7503 18.9919 17.7252 18.9919C17.7001 18.9919 17.6797 19.0115 17.6797 19.0357C17.6797 19.0599 17.7001 19.0795 17.7252 19.0795Z" fill="#61A3FA"/>
<path d="M18.091 18.9626C18.091 19.0176 18.0446 19.0622 17.9874 19.0622C17.9301 19.0622 17.8838 19.0176 17.8838 18.9626C17.8838 18.9076 17.9301 18.863 17.9874 18.863C18.0446 18.8629 18.091 18.9076 18.091 18.9626Z" fill="#61A3FA"/>
<path d="M18.9999 18.6976C18.9999 18.7177 18.983 18.7341 18.962 18.7341C18.941 18.7341 18.9241 18.7177 18.9241 18.6976C18.9241 18.6774 18.941 18.6611 18.962 18.6611C18.983 18.6611 18.9999 18.6774 18.9999 18.6976Z" fill="#61A3FA"/>
<path d="M18.1563 17.8253C18.1563 17.8739 18.1153 17.9132 18.0648 17.9132C18.0144 17.9132 17.9734 17.8739 17.9734 17.8253C17.9734 17.7768 18.0144 17.7375 18.0648 17.7375C18.1155 17.7374 18.1563 17.7768 18.1563 17.8253Z" fill="#61A3FA"/>
<path d="M14.2366 5.98461C14.2595 5.98461 14.2781 5.96674 14.2781 5.9447C14.2781 5.92265 14.2595 5.90479 14.2366 5.90479C14.2137 5.90479 14.1951 5.92265 14.1951 5.9447C14.1951 5.96674 14.2137 5.98461 14.2366 5.98461Z" fill="#61A3FA"/>
<path d="M14.4863 6.56894C14.4863 6.61628 14.4463 6.65473 14.3971 6.65473C14.3479 6.65473 14.3079 6.61628 14.3079 6.56894C14.3079 6.52161 14.3479 6.48315 14.3971 6.48315C14.4465 6.48315 14.4863 6.52147 14.4863 6.56894Z" fill="#61A3FA"/>
<path d="M15.5979 6.87659C15.6469 6.87659 15.6867 6.83836 15.6867 6.7912C15.6867 6.74404 15.6469 6.70581 15.5979 6.70581C15.5488 6.70581 15.509 6.74404 15.509 6.7912C15.509 6.83836 15.5488 6.87659 15.5979 6.87659Z" fill="#61A3FA"/>
<path d="M15.3823 5.99384C15.3823 6.04953 15.3354 6.09461 15.2774 6.09461C15.2195 6.09461 15.1726 6.04953 15.1726 5.99384C15.1726 5.93815 15.2195 5.89307 15.2774 5.89307C15.3354 5.89307 15.3823 5.93828 15.3823 5.99384Z" fill="#61A3FA"/>
<path d="M15.8677 5.91972C15.8677 5.93444 15.8553 5.94637 15.84 5.94637C15.8247 5.94637 15.8123 5.93444 15.8123 5.91972C15.8123 5.905 15.8247 5.89307 15.84 5.89307C15.8553 5.8932 15.8677 5.90513 15.8677 5.91972Z" fill="#61A3FA"/>
<path d="M16.2805 5.92536C16.2805 5.98437 16.2307 6.03237 16.1692 6.03237C16.1078 6.03237 16.0579 5.9845 16.0579 5.92536C16.0579 5.86623 16.1077 5.81836 16.1692 5.81836C16.2307 5.81836 16.2805 5.86623 16.2805 5.92536Z" fill="#61A3FA"/>
<path d="M15.7944 6.78645C15.7944 6.8371 15.7518 6.87807 15.6991 6.87807C15.6464 6.87807 15.6038 6.8371 15.6038 6.78645C15.6038 6.7358 15.6464 6.69482 15.6991 6.69482C15.7518 6.69482 15.7944 6.73593 15.7944 6.78645Z" fill="#61A3FA"/>
<path d="M16.3834 7.13252C16.3834 7.1475 16.3709 7.15957 16.3553 7.15957C16.3397 7.15957 16.3271 7.1475 16.3271 7.13252C16.3271 7.11753 16.3397 7.10547 16.3553 7.10547C16.3707 7.10547 16.3834 7.11767 16.3834 7.13252Z" fill="#61A3FA"/>
<path d="M15.9468 7.36285C15.9468 7.40913 15.9078 7.44665 15.8596 7.44665C15.8115 7.44665 15.7725 7.40913 15.7725 7.36285C15.7725 7.31658 15.8115 7.27905 15.8596 7.27905C15.9078 7.27905 15.9468 7.31658 15.9468 7.36285Z" fill="#61A3FA"/>
<path d="M15.5701 7.01542C15.5701 7.07853 15.5169 7.12985 15.4511 7.12985C15.3854 7.12985 15.332 7.07867 15.332 7.01542C15.332 6.9523 15.3853 6.90112 15.4511 6.90112C15.5169 6.90112 15.5701 6.9523 15.5701 7.01542Z" fill="#61A3FA"/>
<path d="M14.9282 6.95441C14.9282 7.02031 14.8726 7.07361 14.8042 7.07361C14.7356 7.07361 14.6802 7.02017 14.6802 6.95441C14.6802 6.88851 14.7358 6.83521 14.8042 6.83521C14.8726 6.83521 14.9282 6.88864 14.9282 6.95441Z" fill="#61A3FA"/>
<path d="M14.1149 6.30878C14.1482 6.30878 14.1753 6.28278 14.1753 6.2507C14.1753 6.21863 14.1482 6.19263 14.1149 6.19263C14.0815 6.19263 14.0544 6.21863 14.0544 6.2507C14.0544 6.28278 14.0815 6.30878 14.1149 6.30878Z" fill="#61A3FA"/>
<path d="M14.0985 6.32837C14.0985 6.359 14.0727 6.3838 14.0408 6.3838C14.0089 6.3838 13.9832 6.359 13.9832 6.32837C13.9832 6.29774 14.0089 6.27295 14.0408 6.27295C14.0727 6.27295 14.0985 6.29774 14.0985 6.32837Z" fill="#61A3FA"/>
<path d="M13.5984 6.39192C13.5984 6.45278 13.5471 6.50211 13.4838 6.50211C13.4205 6.50211 13.3691 6.45278 13.3691 6.39192C13.3691 6.33106 13.4205 6.28174 13.4838 6.28174C13.5471 6.28174 13.5984 6.33119 13.5984 6.39192Z" fill="#61A3FA"/>
<path d="M13.5729 5.81602C13.5729 5.87622 13.5222 5.92502 13.4596 5.92502C13.3969 5.92502 13.3462 5.87622 13.3462 5.81602C13.3462 5.75583 13.3969 5.70703 13.4596 5.70703C13.5223 5.70716 13.5729 5.75596 13.5729 5.81602Z" fill="#61A3FA"/>
<path d="M13.2502 5.2C13.2502 5.26405 13.1961 5.31602 13.1295 5.31602C13.0629 5.31602 13.0088 5.26405 13.0088 5.2C13.0088 5.13596 13.0629 5.08398 13.1295 5.08398C13.1961 5.08398 13.2502 5.13596 13.2502 5.2Z" fill="#61A3FA"/>
<path d="M12.8074 5.33874C12.8074 5.37785 12.7745 5.40941 12.7339 5.40941C12.6934 5.40941 12.6604 5.37772 12.6604 5.33874C12.6604 5.29976 12.6934 5.26807 12.7339 5.26807C12.7745 5.26807 12.8074 5.29962 12.8074 5.33874Z" fill="#61A3FA"/>
<path d="M12.5431 5.77047C12.5871 5.77047 12.6228 5.73615 12.6228 5.69383C12.6228 5.6515 12.5871 5.61719 12.5431 5.61719C12.4991 5.61719 12.4634 5.6515 12.4634 5.69383C12.4634 5.73615 12.4991 5.77047 12.5431 5.77047Z" fill="#61A3FA"/>
<path d="M12.7655 6.06771C12.7655 6.10736 12.732 6.13958 12.6907 6.13958C12.6495 6.13958 12.616 6.10736 12.616 6.06771C12.616 6.02807 12.6495 5.99585 12.6907 5.99585C12.732 5.99585 12.7655 6.02807 12.7655 6.06771Z" fill="#61A3FA"/>
<path d="M12.9726 5.9076C12.9726 5.94764 12.939 5.98 12.8973 5.98C12.8558 5.98 12.822 5.94764 12.822 5.9076C12.822 5.86769 12.8557 5.83521 12.8973 5.83521C12.9388 5.83521 12.9726 5.86756 12.9726 5.9076Z" fill="#61A3FA"/>
<path d="M12.6698 5.70494C12.6698 5.73968 12.6406 5.76779 12.6044 5.76779C12.5683 5.76779 12.5391 5.73968 12.5391 5.70494C12.5391 5.6702 12.5683 5.64209 12.6044 5.64209C12.6406 5.64209 12.6698 5.6702 12.6698 5.70494Z" fill="#61A3FA"/>
<path d="M13.0391 5.10582C13.0391 5.12266 13.0249 5.13645 13.0072 5.13645C12.9895 5.13645 12.9753 5.1228 12.9753 5.10582C12.9753 5.08898 12.9895 5.0752 13.0072 5.0752C13.0249 5.0752 13.0391 5.08885 13.0391 5.10582Z" fill="#61A3FA"/>
<path d="M12.4088 4.63734C12.4088 4.69183 12.3629 4.73585 12.3063 4.73585C12.2498 4.73585 12.2039 4.6917 12.2039 4.63734C12.2039 4.58297 12.2498 4.53882 12.3063 4.53882C12.3629 4.53882 12.4088 4.58284 12.4088 4.63734Z" fill="#61A3FA"/>
<path d="M12.6651 4.57149C12.6651 4.61445 12.6288 4.64932 12.5841 4.64932C12.5394 4.64932 12.5032 4.61445 12.5032 4.57149C12.5032 4.52852 12.5394 4.49365 12.5841 4.49365C12.6288 4.49365 12.6651 4.52852 12.6651 4.57149Z" fill="#61A3FA"/>
<path d="M8.30642 0.740777C8.30642 0.790367 8.26462 0.830676 8.2129 0.830676C8.16132 0.830676 8.11938 0.7905 8.11938 0.740777C8.11938 0.691055 8.16118 0.650879 8.2129 0.650879C8.26462 0.650879 8.30642 0.691187 8.30642 0.740777Z" fill="#61A3FA"/>
<path d="M7.83349 0.0281098C7.83349 0.0436233 7.82039 0.0562197 7.80439 0.0562197C7.78825 0.0562197 7.77515 0.0436233 7.77515 0.0281098C7.77515 0.0125964 7.78825 0 7.80439 0C7.82039 0.000132594 7.83349 0.0125964 7.83349 0.0281098Z" fill="#61A3FA"/>
<path d="M7.36345 0.940575C7.36345 0.990032 7.3218 1.03008 7.27035 1.03008C7.2189 1.03008 7.17725 0.990032 7.17725 0.940575C7.17725 0.89125 7.2189 0.851074 7.27035 0.851074C7.3218 0.851074 7.36345 0.89125 7.36345 0.940575Z" fill="#61A3FA"/>
<path d="M7.96419 1.27641C7.96419 1.31327 7.93316 1.34311 7.89482 1.34311C7.85647 1.34311 7.82544 1.31327 7.82544 1.27641C7.82544 1.23955 7.85647 1.20972 7.89482 1.20972C7.93316 1.20958 7.96419 1.23955 7.96419 1.27641Z" fill="#61A3FA"/>
<path d="M8.21056 1.75155C8.21056 1.80313 8.16711 1.8449 8.11346 1.8449C8.05981 1.8449 8.01636 1.80313 8.01636 1.75155C8.01636 1.69997 8.05981 1.6582 8.11346 1.6582C8.16711 1.65807 8.21056 1.69997 8.21056 1.75155Z" fill="#61A3FA"/>
<path d="M9.15812 1.98428C9.15812 2.01849 9.1293 2.04621 9.09371 2.04621C9.05812 2.04621 9.0293 2.01849 9.0293 1.98428C9.0293 1.95008 9.05812 1.92236 9.09371 1.92236C9.1293 1.92236 9.15812 1.95008 9.15812 1.98428Z" fill="#61A3FA"/>
<path d="M8.12155 2.54588C8.16832 2.54588 8.20624 2.50943 8.20624 2.46447C8.20624 2.41951 8.16832 2.38306 8.12155 2.38306C8.07478 2.38306 8.03687 2.41951 8.03687 2.46447C8.03687 2.50943 8.07478 2.54588 8.12155 2.54588Z" fill="#61A3FA"/>
<path d="M8.80612 3.0509C8.80612 3.10102 8.76391 3.14159 8.71178 3.14159C8.65964 3.14159 8.61743 3.10102 8.61743 3.0509C8.61743 3.00078 8.65978 2.96021 8.71178 2.96021C8.76391 2.96021 8.80612 3.00078 8.80612 3.0509Z" fill="#61A3FA"/>
<path d="M8.57282 3.5661C8.57282 3.62776 8.52082 3.67761 8.45682 3.67761C8.39282 3.67761 8.34082 3.62762 8.34082 3.5661C8.34082 3.50458 8.39282 3.45459 8.45682 3.45459C8.52082 3.45459 8.57282 3.50445 8.57282 3.5661Z" fill="#61A3FA"/>
<path d="M8.13502 4.4254C8.18842 4.4254 8.23171 4.38378 8.23171 4.33245C8.23171 4.28112 8.18842 4.2395 8.13502 4.2395C8.08162 4.2395 8.03833 4.28112 8.03833 4.33245C8.03833 4.38378 8.08162 4.4254 8.13502 4.4254Z" fill="#61A3FA"/>
<path d="M7.65808 3.96645C7.65808 4.00569 7.62498 4.03738 7.58429 4.03738C7.5436 4.03738 7.5105 4.00556 7.5105 3.96645C7.5105 3.92733 7.5436 3.89551 7.58429 3.89551C7.62498 3.89551 7.65808 3.9272 7.65808 3.96645Z" fill="#61A3FA"/>
<path d="M7.15353 3.56112C7.17859 3.56112 7.19891 3.54159 7.19891 3.5175C7.19891 3.49341 7.17859 3.47388 7.15353 3.47388C7.12847 3.47388 7.10815 3.49341 7.10815 3.5175C7.10815 3.54159 7.12847 3.56112 7.15353 3.56112Z" fill="#61A3FA"/>
<path d="M8.01213 2.88912C8.03407 2.88912 8.05186 2.87202 8.05186 2.85093C8.05186 2.82984 8.03407 2.81274 8.01213 2.81274C7.9902 2.81274 7.97241 2.82984 7.97241 2.85093C7.97241 2.87202 7.9902 2.88912 8.01213 2.88912Z" fill="#61A3FA"/>
<path d="M7.92027 2.19947C7.92027 2.24707 7.88014 2.28565 7.83062 2.28565C7.7811 2.28565 7.74097 2.24707 7.74097 2.19947C7.74097 2.15187 7.7811 2.11328 7.83062 2.11328C7.88014 2.11328 7.92027 2.15187 7.92027 2.19947Z" fill="#61A3FA"/>
<path d="M7.30992 1.73715C7.30992 1.77348 7.2793 1.80292 7.24151 1.80292C7.20372 1.80292 7.1731 1.77348 7.1731 1.73715C7.1731 1.70082 7.20372 1.67139 7.24151 1.67139C7.2793 1.67139 7.30992 1.70082 7.30992 1.73715Z" fill="#61A3FA"/>
<path d="M7.0918 2.17287C7.14047 2.17287 7.17993 2.13494 7.17993 2.08815C7.17993 2.04135 7.14047 2.00342 7.0918 2.00342C7.04312 2.00342 7.00366 2.04135 7.00366 2.08815C7.00366 2.13494 7.04312 2.17287 7.0918 2.17287Z" fill="#61A3FA"/>
<path d="M7.43511 2.6809C7.43511 2.72492 7.39801 2.76072 7.35208 2.76072C7.30628 2.76072 7.26904 2.72505 7.26904 2.6809C7.26904 2.63687 7.30615 2.60107 7.35208 2.60107C7.39801 2.60107 7.43511 2.63687 7.43511 2.6809Z" fill="#61A3FA"/>
<path d="M7.34561 3.29473C7.34561 3.34698 7.30161 3.38927 7.24727 3.38927C7.19292 3.38927 7.14893 3.34698 7.14893 3.29473C7.14893 3.24249 7.19292 3.2002 7.24727 3.2002C7.30161 3.2002 7.34561 3.24249 7.34561 3.29473Z" fill="#61A3FA"/>
<path d="M6.99505 3.75612C6.99505 3.8191 6.94195 3.87015 6.87643 3.87015C6.81091 3.87015 6.75781 3.8191 6.75781 3.75612C6.75781 3.69314 6.81091 3.64209 6.87643 3.64209C6.94195 3.64209 6.99505 3.69314 6.99505 3.75612Z" fill="#61A3FA"/>
<path d="M7.08873 4.29251C7.10564 4.29251 7.11935 4.27934 7.11935 4.26308C7.11935 4.24682 7.10564 4.23364 7.08873 4.23364C7.07181 4.23364 7.05811 4.24682 7.05811 4.26308C7.05811 4.27934 7.07181 4.29251 7.08873 4.29251Z" fill="#61A3FA"/>
<path d="M6.61684 3.25684C6.61684 3.32141 6.56236 3.37379 6.49519 3.37379C6.42802 3.37379 6.37354 3.32141 6.37354 3.25684C6.37354 3.19227 6.42802 3.13989 6.49519 3.13989C6.56236 3.13989 6.61684 3.19227 6.61684 3.25684Z" fill="#61A3FA"/>
<path d="M7.38783 3.09202C7.38783 3.12927 7.35638 3.15951 7.31776 3.15951C7.27901 3.15951 7.24756 3.12927 7.24756 3.09202C7.24756 3.05476 7.27901 3.02466 7.31776 3.02466C7.35652 3.02453 7.38783 3.05476 7.38783 3.09202Z" fill="#61A3FA"/>
<path d="M7.91674 2.62472C7.91674 2.68054 7.86971 2.72589 7.81164 2.72589C7.75358 2.72589 7.70654 2.68067 7.70654 2.62472C7.70654 2.5689 7.75358 2.52368 7.81164 2.52368C7.86971 2.52355 7.91674 2.5689 7.91674 2.62472Z" fill="#61A3FA"/>
<path d="M7.69729 1.87323C7.69729 1.92122 7.65687 1.96007 7.60694 1.96007C7.55701 1.96007 7.5166 1.92122 7.5166 1.87323C7.5166 1.82523 7.55701 1.78638 7.60694 1.78638C7.65687 1.78638 7.69729 1.82523 7.69729 1.87323Z" fill="#61A3FA"/>
<path d="M7.64609 1.84259C7.64609 1.85744 7.63354 1.86951 7.61809 1.86951C7.60264 1.86951 7.59009 1.85744 7.59009 1.84259C7.59009 1.82774 7.60264 1.81567 7.61809 1.81567C7.63354 1.81567 7.64609 1.82774 7.64609 1.84259Z" fill="#61A3FA"/>
<path d="M8.18396 2.28194C8.18396 2.34704 8.12906 2.39981 8.06134 2.39981C7.99362 2.39981 7.93872 2.34704 7.93872 2.28194C7.93872 2.21683 7.99362 2.16406 8.06134 2.16406C8.12906 2.16406 8.18396 2.21683 8.18396 2.28194Z" fill="#61A3FA"/>
<path d="M7.36712 2.6639C7.36712 2.68406 7.35016 2.70037 7.32919 2.70037C7.30823 2.70037 7.29126 2.68406 7.29126 2.6639C7.29126 2.64375 7.30823 2.62744 7.32919 2.62744C7.35002 2.62744 7.36712 2.64375 7.36712 2.6639Z" fill="#61A3FA"/>
<path d="M7.30961 2.91603C7.30961 2.9798 7.25582 3.03152 7.18947 3.03152C7.12313 3.03152 7.06934 2.9798 7.06934 2.91603C7.06934 2.85225 7.12313 2.80054 7.18947 2.80054C7.25582 2.80054 7.30961 2.85225 7.30961 2.91603Z" fill="#61A3FA"/>
<path d="M7.98397 3.01055C7.98397 3.03216 7.96576 3.04967 7.94328 3.04967C7.92079 3.04967 7.90259 3.03216 7.90259 3.01055C7.90259 2.98894 7.92079 2.97144 7.94328 2.97144C7.96576 2.97144 7.98397 2.98894 7.98397 3.01055Z" fill="#61A3FA"/>
<path d="M7.08449 2.42204C7.08449 2.4886 7.02836 2.54257 6.95912 2.54257C6.88988 2.54257 6.83374 2.4886 6.83374 2.42204C6.83374 2.35548 6.88988 2.30151 6.95912 2.30151C7.02836 2.30151 7.08449 2.35548 7.08449 2.42204Z" fill="#61A3FA"/>
<path d="M8.00037 2.02659C8.00037 2.05444 7.97692 2.07711 7.94781 2.07711C7.91885 2.07711 7.89526 2.05457 7.89526 2.02659C7.89526 1.99875 7.91885 1.97607 7.94781 1.97607C7.97678 1.97607 8.00037 1.99875 8.00037 2.02659Z" fill="#61A3FA"/>
</svg>
